<?xml version="1.0" encoding="UTF-8"?><svg xmlns="http://www.w3.org/2000/svg" xmlns:xlink="http://www.w3.org/1999/xlink" fill-opacity="1" color-rendering="auto" color-interpolation="auto" text-rendering="auto" stroke="black" stroke-linecap="square" width="1409" stroke-miterlimit="10" shape-rendering="auto" stroke-opacity="1" fill="black" stroke-dasharray="none" font-weight="normal" stroke-width="1" height="464" font-family="'Dialog'" font-style="normal" stroke-linejoin="miter" font-size="12px" stroke-dashoffset="0" image-rendering="auto">
  <!--Generated by ySVG 2.5-->
  <defs id="genericDefs"/>
  <g>
    <defs id="defs1">
      <linearGradient x1="-29" gradientUnits="userSpaceOnUse" x2="116" y1="178.5" y2="241.5" id="linearGradient1" spreadMethod="reflect">
        <stop stop-opacity="1" stop-color="rgb(232,238,247)" offset="0%"/>
        <stop stop-opacity="1" stop-color="rgb(183,201,227)" offset="100%"/>
      </linearGradient>
      <linearGradient x1="257.5" gradientUnits="userSpaceOnUse" x2="402.5" y1="178.5" y2="241.5" id="linearGradient2" spreadMethod="reflect">
        <stop stop-opacity="1" stop-color="rgb(232,238,247)" offset="0%"/>
        <stop stop-opacity="1" stop-color="rgb(183,201,227)" offset="100%"/>
      </linearGradient>
      <linearGradient x1="544" gradientUnits="userSpaceOnUse" x2="689" y1="178.5" y2="241.5" id="linearGradient3" spreadMethod="reflect">
        <stop stop-opacity="1" stop-color="rgb(232,238,247)" offset="0%"/>
        <stop stop-opacity="1" stop-color="rgb(183,201,227)" offset="100%"/>
      </linearGradient>
      <linearGradient x1="830.5" gradientUnits="userSpaceOnUse" x2="975.5" y1="178.5" y2="241.5" id="linearGradient4" spreadMethod="reflect">
        <stop stop-opacity="1" stop-color="rgb(232,238,247)" offset="0%"/>
        <stop stop-opacity="1" stop-color="rgb(183,201,227)" offset="100%"/>
      </linearGradient>
      <linearGradient x1="257.5" gradientUnits="userSpaceOnUse" x2="402.5" y1="448.5" y2="511.5" id="linearGradient5" spreadMethod="reflect">
        <stop stop-opacity="1" stop-color="rgb(232,238,247)" offset="0%"/>
        <stop stop-opacity="1" stop-color="rgb(183,201,227)" offset="100%"/>
      </linearGradient>
      <linearGradient x1="544" gradientUnits="userSpaceOnUse" x2="689" y1="448.5" y2="511.5" id="linearGradient6" spreadMethod="reflect">
        <stop stop-opacity="1" stop-color="rgb(232,238,247)" offset="0%"/>
        <stop stop-opacity="1" stop-color="rgb(183,201,227)" offset="100%"/>
      </linearGradient>
      <linearGradient x1="1117" gradientUnits="userSpaceOnUse" x2="1262" y1="178.5" y2="241.5" id="linearGradient7" spreadMethod="reflect">
        <stop stop-opacity="1" stop-color="rgb(232,238,247)" offset="0%"/>
        <stop stop-opacity="1" stop-color="rgb(183,201,227)" offset="100%"/>
      </linearGradient>
      <linearGradient x1="830.5" gradientUnits="userSpaceOnUse" x2="975.5" y1="448.5" y2="511.5" id="linearGradient8" spreadMethod="reflect">
        <stop stop-opacity="1" stop-color="rgb(232,238,247)" offset="0%"/>
        <stop stop-opacity="1" stop-color="rgb(183,201,227)" offset="100%"/>
      </linearGradient>
      <clipPath clipPathUnits="userSpaceOnUse" id="clipPath1">
        <path d="M0 0 L1409 0 L1409 464 L0 464 L0 0 Z"/>
      </clipPath>
      <clipPath clipPathUnits="userSpaceOnUse" id="clipPath2">
        <path d="M-132 122 L1277 122 L1277 586 L-132 586 L-132 122 Z"/>
      </clipPath>
    </defs>
    <g fill="white" text-rendering="geometricPrecision" shape-rendering="geometricPrecision" transform="translate(132,-122)" stroke="white">
      <rect x="-132" width="1409" height="464" y="122" clip-path="url(#clipPath2)" stroke="none"/>
    </g>
    <g fill="url(#linearGradient1)" text-rendering="geometricPrecision" shape-rendering="geometricPrecision" transform="matrix(1,0,0,1,132,-122)" stroke="url(#linearGradient1)">
      <rect x="-29" y="178.5" clip-path="url(#clipPath2)" width="145" rx="31.5" ry="31.5" height="63" stroke="none"/>
    </g>
    <g text-rendering="geometricPrecision" stroke-miterlimit="1.45" shape-rendering="geometricPrecision" transform="matrix(1,0,0,1,132,-122)" stroke-linecap="butt">
      <rect x="-29" y="178.5" clip-path="url(#clipPath2)" fill="none" width="145" rx="31.5" ry="31.5" height="63"/>
      <text x="25.8779" xml:space="preserve" y="214.1543" clip-path="url(#clipPath2)" font-family="sans-serif" stroke="none">FPWD</text>
    </g>
    <g fill="url(#linearGradient2)" text-rendering="geometricPrecision" shape-rendering="geometricPrecision" transform="matrix(1,0,0,1,132,-122)" stroke="url(#linearGradient2)">
      <rect x="257.5" y="178.5" clip-path="url(#clipPath2)" width="145" rx="31.5" ry="31.5" height="63" stroke="none"/>
    </g>
    <g text-rendering="geometricPrecision" stroke-miterlimit="1.45" shape-rendering="geometricPrecision" transform="matrix(1,0,0,1,132,-122)" stroke-linecap="butt">
      <rect x="257.5" y="178.5" clip-path="url(#clipPath2)" fill="none" width="145" rx="31.5" ry="31.5" height="63"/>
      <text x="319.4473" xml:space="preserve" y="214.1543" clip-path="url(#clipPath2)" font-family="sans-serif" stroke="none">WD</text>
    </g>
    <g fill="url(#linearGradient3)" text-rendering="geometricPrecision" shape-rendering="geometricPrecision" transform="matrix(1,0,0,1,132,-122)" stroke="url(#linearGradient3)">
      <rect x="544" y="178.5" clip-path="url(#clipPath2)" width="145" rx="31.5" ry="31.5" height="63" stroke="none"/>
    </g>
    <g text-rendering="geometricPrecision" stroke-miterlimit="1.45" shape-rendering="geometricPrecision" transform="matrix(1,0,0,1,132,-122)" stroke-linecap="butt">
      <rect x="544" y="178.5" clip-path="url(#clipPath2)" fill="none" width="145" rx="31.5" ry="31.5" height="63"/>
      <text x="608.1416" xml:space="preserve" y="214.1543" clip-path="url(#clipPath2)" font-family="sans-serif" stroke="none">CR</text>
    </g>
    <g fill="url(#linearGradient4)" text-rendering="geometricPrecision" shape-rendering="geometricPrecision" transform="matrix(1,0,0,1,132,-122)" stroke="url(#linearGradient4)">
      <rect x="830.5" y="178.5" clip-path="url(#clipPath2)" width="145" rx="31.5" ry="31.5" height="63" stroke="none"/>
    </g>
    <g text-rendering="geometricPrecision" stroke-miterlimit="1.45" shape-rendering="geometricPrecision" transform="matrix(1,0,0,1,132,-122)" stroke-linecap="butt">
      <rect x="830.5" y="178.5" clip-path="url(#clipPath2)" fill="none" width="145" rx="31.5" ry="31.5" height="63"/>
      <text x="895.2129" xml:space="preserve" y="214.1543" clip-path="url(#clipPath2)" font-family="sans-serif" stroke="none">PR</text>
    </g>
    <g fill="url(#linearGradient5)" text-rendering="geometricPrecision" shape-rendering="geometricPrecision" transform="matrix(1,0,0,1,132,-122)" stroke="url(#linearGradient5)">
      <rect x="257.5" y="448.5" clip-path="url(#clipPath2)" width="145" rx="31.5" ry="31.5" height="63" stroke="none"/>
    </g>
    <g text-rendering="geometricPrecision" stroke-miterlimit="1.45" shape-rendering="geometricPrecision" transform="matrix(1,0,0,1,132,-122)" stroke-linecap="butt">
      <rect x="257.5" y="448.5" clip-path="url(#clipPath2)" fill="none" width="145" rx="31.5" ry="31.5" height="63"/>
      <text x="296.0332" xml:space="preserve" y="484.1543" clip-path="url(#clipPath2)" font-family="sans-serif" stroke="none">CR (edited)</text>
    </g>
    <g fill="url(#linearGradient6)" text-rendering="geometricPrecision" shape-rendering="geometricPrecision" transform="matrix(1,0,0,1,132,-122)" stroke="url(#linearGradient6)">
      <rect x="544" y="448.5" clip-path="url(#clipPath2)" width="145" rx="31.5" ry="31.5" height="63" stroke="none"/>
    </g>
    <g text-rendering="geometricPrecision" stroke-miterlimit="1.45" shape-rendering="geometricPrecision" transform="matrix(1,0,0,1,132,-122)" stroke-linecap="butt">
      <rect x="544" y="448.5" clip-path="url(#clipPath2)" fill="none" width="145" rx="31.5" ry="31.5" height="63"/>
      <text x="583.1045" xml:space="preserve" y="484.1543" clip-path="url(#clipPath2)" font-family="sans-serif" stroke="none">PR (edited)</text>
    </g>
    <g fill="url(#linearGradient7)" text-rendering="geometricPrecision" shape-rendering="geometricPrecision" transform="matrix(1,0,0,1,132,-122)" stroke="url(#linearGradient7)">
      <rect x="1117" y="178.5" clip-path="url(#clipPath2)" width="145" rx="31.5" ry="31.5" height="63" stroke="none"/>
    </g>
    <g text-rendering="geometricPrecision" stroke-miterlimit="1.45" shape-rendering="geometricPrecision" transform="matrix(1,0,0,1,132,-122)" stroke-linecap="butt">
      <rect x="1117" y="178.5" clip-path="url(#clipPath2)" fill="none" width="145" rx="31.5" ry="31.5" height="63"/>
      <text x="1177.3506" xml:space="preserve" y="214.1543" clip-path="url(#clipPath2)" font-family="sans-serif" stroke="none">REC</text>
    </g>
    <g fill="url(#linearGradient8)" text-rendering="geometricPrecision" shape-rendering="geometricPrecision" transform="matrix(1,0,0,1,132,-122)" stroke="url(#linearGradient8)">
      <rect x="830.5" y="448.5" clip-path="url(#clipPath2)" width="145" rx="31.5" ry="31.5" height="63" stroke="none"/>
    </g>
    <g text-rendering="geometricPrecision" stroke-miterlimit="1.45" shape-rendering="geometricPrecision" transform="matrix(1,0,0,1,132,-122)" stroke-linecap="butt">
      <rect x="830.5" y="448.5" clip-path="url(#clipPath2)" fill="none" width="145" rx="31.5" ry="31.5" height="63"/>
      <text x="865.2422" xml:space="preserve" y="484.1543" clip-path="url(#clipPath2)" font-family="sans-serif" stroke="none">REC (edited)</text>
    </g>
    <g fill="white" text-rendering="geometricPrecision" shape-rendering="geometricPrecision" transform="matrix(1,0,0,1,132,-122)" stroke="white">
      <rect x="-116.5" width="232.5" height="166.25" y="355.9857" clip-path="url(#clipPath2)" stroke="none"/>
    </g>
    <g text-rendering="geometricPrecision" stroke-miterlimit="1.45" shape-rendering="geometricPrecision" transform="matrix(1,0,0,1,132,-122)" stroke-linecap="butt">
      <rect fill="none" x="-116.5" width="232.5" height="166.25" y="355.9857" clip-path="url(#clipPath2)"/>
      <text x="-110.5" xml:space="preserve" y="373.1244" clip-path="url(#clipPath2)" font-family="sans-serif" stroke="none">D: deprecates</text>
      <text x="-110.5" xml:space="preserve" y="387.0932" clip-path="url(#clipPath2)" font-family="sans-serif" stroke="none">C: shortlink /TR/shortname changes</text>
      <path fill="none" d="M366.1171 178.506 L366.3116 177.2319 L366.5 173.5 L366.3116 169.7681 L365.7585 166.144 L364.859 162.646 L363.6317 159.2926 L362.0946 156.1019 L360.2664 153.0925 L358.1652 150.2826 L355.8094 147.6906 L353.2174 145.3348 L350.4075 143.2336 L347.3981 141.4053 L344.2075 139.8683 L340.854 138.641 L337.356 137.7415 L333.7319 137.1884 L330 137 L326.2681 137.1884 L322.644 137.7415 L319.146 138.641 L315.7925 139.8683 L312.6019 141.4053 L309.5925 143.2336 L306.7826 145.3348 L304.1906 147.6906 L301.8348 150.2826 L299.7336 153.0925 L297.9054 156.1019 L296.3683 159.2926 L295.141 162.646 L294.2415 166.144 L293.6884 169.7681 L293.5307 172.892 L293.5383 172.9918" stroke-width="2" clip-path="url(#clipPath2)"/>
      <path d="M293.819 177.483 L299.7139 163.5883 L293.819 177.483 L286.2402 164.4303 Z" stroke-width="2" clip-path="url(#clipPath2)" stroke="none"/>
      <path fill="none" stroke-miterlimit="10" d="M293.819 177.483 L299.7139 163.5883 L293.819 177.483 L286.2402 164.4303 Z" clip-path="url(#clipPath2)" stroke-linecap="square"/>
      <text x="319.2832" xml:space="preserve" y="157.3418" clip-path="url(#clipPath2)" font-family="sans-serif" stroke="none">D,C</text>
      <path fill="none" d="M257.5007 210 L121.6167 210" stroke-width="2" clip-path="url(#clipPath2)"/>
      <path d="M117.1167 210 L130.6167 216.75 L117.1167 210 L130.6167 203.25 Z" stroke-width="2" clip-path="url(#clipPath2)" stroke="none"/>
      <path fill="none" stroke-miterlimit="10" d="M117.1167 210 L130.6167 216.75 L117.1167 210 L130.6167 203.25 Z" clip-path="url(#clipPath2)" stroke-linecap="square"/>
      <rect x="174.0332" y="201.0156" clip-path="url(#clipPath2)" fill="white" width="25.4336" height="17.9688" stroke="none" stroke-width="2"/>
      <text x="176.0332" xml:space="preserve" y="214.1543" clip-path="url(#clipPath2)" font-family="sans-serif" stroke="none">D,C</text>
      <path fill="none" d="M652.6171 178.506 L652.8116 177.2319 L653 173.5 L652.8116 169.7681 L652.2584 166.144 L651.359 162.646 L650.1317 159.2926 L648.5947 156.1019 L646.7664 153.0925 L644.6652 150.2826 L642.3094 147.6906 L639.7174 145.3348 L636.9075 143.2336 L633.8981 141.4053 L630.7075 139.8683 L627.354 138.641 L623.856 137.7415 L620.2319 137.1884 L616.5 137 L612.7681 137.1884 L609.144 137.7415 L605.646 138.641 L602.2925 139.8683 L599.1019 141.4053 L596.0925 143.2336 L593.2826 145.3348 L590.6906 147.6906 L588.3348 150.2826 L586.2336 153.0925 L584.4053 156.1019 L582.8683 159.2926 L581.641 162.646 L580.7416 166.144 L580.1884 169.7681 L580.0307 172.892 L580.0383 172.9918" stroke-width="2" clip-path="url(#clipPath2)"/>
      <path d="M580.319 177.483 L586.2139 163.5883 L580.319 177.483 L572.7402 164.4302 Z" stroke-width="2" clip-path="url(#clipPath2)" stroke="none"/>
      <path fill="none" stroke-miterlimit="10" d="M580.319 177.483 L586.2139 163.5883 L580.319 177.483 L572.7402 164.4302 Z" clip-path="url(#clipPath2)" stroke-linecap="square"/>
      <text x="605.7832" xml:space="preserve" y="157.3418" clip-path="url(#clipPath2)" font-family="sans-serif" stroke="none">D,C</text>
      <path fill="none" d="M544.0007 210 L408.1167 210" stroke-width="2" clip-path="url(#clipPath2)"/>
      <path d="M403.6167 210 L417.1167 216.75 L403.6167 210 L417.1167 203.25 Z" stroke-width="2" clip-path="url(#clipPath2)" stroke="none"/>
      <path fill="none" stroke-miterlimit="10" d="M403.6167 210 L417.1167 216.75 L403.6167 210 L417.1167 203.25 Z" clip-path="url(#clipPath2)" stroke-linecap="square"/>
      <rect x="460.5332" y="201.0156" clip-path="url(#clipPath2)" fill="white" width="25.4336" height="17.9688" stroke="none" stroke-width="2"/>
      <text x="462.5332" xml:space="preserve" y="214.1543" clip-path="url(#clipPath2)" font-family="sans-serif" stroke="none">D,C</text>
      <path fill="none" d="M830.5007 210 L694.6167 210" stroke-width="2" clip-path="url(#clipPath2)"/>
      <path d="M690.1167 210 L703.6167 216.75 L690.1167 210 L703.6167 203.25 Z" stroke-width="2" clip-path="url(#clipPath2)" stroke="none"/>
      <path fill="none" stroke-miterlimit="10" d="M690.1167 210 L703.6167 216.75 L690.1167 210 L703.6167 203.25 Z" clip-path="url(#clipPath2)" stroke-linecap="square"/>
      <rect x="747.0332" y="201.0156" clip-path="url(#clipPath2)" fill="white" width="25.4336" height="17.9688" stroke="none" stroke-width="2"/>
      <text x="749.0332" xml:space="preserve" y="214.1543" clip-path="url(#clipPath2)" font-family="sans-serif" stroke="none">D,C</text>
      <path fill="none" d="M287.0822 511.4569 L287.0231 511.6184 L285.9142 515.9309 L285.2323 520.399 L285 525 L285.2323 529.601 L285.9142 534.0691 L287.0231 538.3817 L288.5363 542.5161 L290.4312 546.4496 L292.6853 550.1599 L295.2758 553.6242 L298.1802 556.8198 L301.3758 559.7242 L304.8401 562.3147 L308.5503 564.5687 L312.484 566.4637 L316.6184 567.9769 L320.9309 569.0858 L325.399 569.7677 L330 570 L334.601 569.7677 L339.0691 569.0858 L343.3816 567.9769 L347.516 566.4637 L351.4497 564.5687 L355.1599 562.3147 L358.6242 559.7242 L361.8198 556.8198 L364.7242 553.6242 L367.3147 550.1599 L369.5688 546.4496 L371.4637 542.5161 L372.9769 538.3817 L374.0858 534.0691 L374.7677 529.601 L375 525 L374.7677 520.399 L374.2375 516.9249 L374.2122 516.8281" stroke-width="2" clip-path="url(#clipPath2)"/>
      <path d="M373.1579 512.4534 L369.7586 527.1591 L373.1579 512.4534 L382.8828 523.9963 Z" stroke-width="2" clip-path="url(#clipPath2)" stroke="none"/>
      <path fill="none" stroke-miterlimit="10" d="M373.1579 512.4534 L369.7586 527.1591 L373.1579 512.4534 L382.8828 523.9963 Z" clip-path="url(#clipPath2)" stroke-linecap="square"/>
      <text x="325.3799" xml:space="preserve" y="549.4668" clip-path="url(#clipPath2)" font-family="sans-serif" stroke="none">D,C</text>
      <path fill="none" d="M544.0007 480 L408.1167 480" stroke-width="2" clip-path="url(#clipPath2)"/>
      <path d="M403.6167 480 L417.1167 486.75 L403.6167 480 L417.1167 473.25 Z" stroke-width="2" clip-path="url(#clipPath2)" stroke="none"/>
      <path fill="none" stroke-miterlimit="10" d="M403.6167 480 L417.1167 486.75 L403.6167 480 L417.1167 473.25 Z" clip-path="url(#clipPath2)" stroke-linecap="square"/>
      <rect x="466.6299" y="471.0156" clip-path="url(#clipPath2)" fill="white" width="13.2402" height="17.9688" stroke="none" stroke-width="2"/>
      <text x="468.6299" xml:space="preserve" y="484.1543" clip-path="url(#clipPath2)" font-family="sans-serif" stroke="none">D,C</text>
      <path fill="none" d="M1225.6171 178.506 L1225.8115 177.2319 L1226 173.5 L1225.8115 169.7681 L1225.2584 166.144 L1224.359 162.646 L1223.1316 159.2926 L1221.5946 156.1019 L1219.7664 153.0925 L1217.6652 150.2826 L1215.3094 147.6906 L1212.7174 145.3348 L1209.9075 143.2336 L1206.8981 141.4053 L1203.7074 139.8683 L1200.354 138.641 L1196.8561 137.7415 L1193.2319 137.1884 L1189.5 137 L1185.7681 137.1884 L1182.1439 137.7415 L1178.646 138.641 L1175.2926 139.8683 L1172.1019 141.4053 L1169.0925 143.2336 L1166.2826 145.3348 L1163.6906 147.6906 L1161.3348 150.2826 L1159.2336 153.0925 L1157.4054 156.1019 L1155.8684 159.2926 L1154.641 162.646 L1153.7416 166.144 L1153.1885 169.7681 L1153.0308 172.892 L1153.0383 172.9918" stroke-width="2" clip-path="url(#clipPath2)"/>
      <path d="M1153.319 177.483 L1159.2139 163.5883 L1153.319 177.483 L1145.7401 164.4303 Z" stroke-width="2" clip-path="url(#clipPath2)" stroke="none"/>
      <path fill="none" stroke-miterlimit="10" d="M1153.319 177.483 L1159.2139 163.5883 L1153.319 177.483 L1145.7401 164.4303 Z" clip-path="url(#clipPath2)" stroke-linecap="square"/>
      <text x="1178.7832" xml:space="preserve" y="157.3418" clip-path="url(#clipPath2)" font-family="sans-serif" stroke="none">D,C</text>
      <path fill="none" d="M1117.0007 210 L981.1167 210" stroke-width="2" clip-path="url(#clipPath2)"/>
      <path d="M976.6167 210 L990.1167 216.75 L976.6167 210 L990.1167 203.25 Z" stroke-width="2" clip-path="url(#clipPath2)" stroke="none"/>
      <path fill="none" stroke-miterlimit="10" d="M976.6167 210 L990.1167 216.75 L976.6167 210 L990.1167 203.25 Z" clip-path="url(#clipPath2)" stroke-linecap="square"/>
      <rect x="1033.5332" y="201.0156" clip-path="url(#clipPath2)" fill="white" width="25.4336" height="17.9688" stroke="none" stroke-width="2"/>
      <text x="1035.5332" xml:space="preserve" y="214.1543" clip-path="url(#clipPath2)" font-family="sans-serif" stroke="none">D,C</text>
      <path fill="none" d="M866.453 511.4761 L865.7352 513.8187 L864.8537 518.1843 L864.4037 522.6663 L864.4044 527.2385 L864.875 531.875 L865.8102 536.4405 L867.1748 540.8044 L868.9425 544.9475 L871.0873 548.8507 L873.5833 552.4949 L876.4042 555.8608 L879.5239 558.9293 L882.9165 561.6812 L886.5559 564.0973 L890.4159 566.1586 L894.4705 567.8458 L898.6937 569.1397 L903.0593 570.0213 L907.5413 570.4713 L912.1135 570.4706 L916.75 570 L921.3155 569.0648 L925.6794 567.7002 L929.8225 565.9325 L933.7257 563.7876 L937.3699 561.2917 L940.7358 558.4708 L943.8043 555.3511 L946.5562 551.9584 L948.9723 548.3191 L951.0336 544.459 L952.7208 540.4044 L954.0147 536.1813 L954.8963 531.8157 L955.3463 527.3337 L955.3456 522.7615 L954.875 518.125 L954.3603 515.6122 L954.3304 515.5168" stroke-width="2" clip-path="url(#clipPath2)"/>
      <path d="M953.1526 511.1736 L950.1713 525.9697 L953.1526 511.1736 L963.2007 522.4363 Z" stroke-width="2" clip-path="url(#clipPath2)" stroke="none"/>
      <path fill="none" stroke-miterlimit="10" d="M953.1526 511.1736 L950.1713 525.9697 L953.1526 511.1736 L963.2007 522.4363 Z" clip-path="url(#clipPath2)" stroke-linecap="square"/>
      <text x="902.2615" xml:space="preserve" y="549.4668" clip-path="url(#clipPath2)" font-family="sans-serif" stroke="none">D,C</text>
      <path fill="none" d="M830.5007 480 L694.6167 480" stroke-width="2" clip-path="url(#clipPath2)"/>
      <path d="M690.1167 480 L703.6167 486.75 L690.1167 480 L703.6167 473.25 Z" stroke-width="2" clip-path="url(#clipPath2)" stroke="none"/>
      <path fill="none" stroke-miterlimit="10" d="M690.1167 480 L703.6167 486.75 L690.1167 480 L703.6167 473.25 Z" clip-path="url(#clipPath2)" stroke-linecap="square"/>
      <rect x="747.0332" y="471.0156" clip-path="url(#clipPath2)" fill="white" width="25.4336" height="17.9688" stroke="none" stroke-width="2"/>
      <text x="749.0332" xml:space="preserve" y="484.1543" clip-path="url(#clipPath2)" font-family="sans-serif" stroke="none">D,C</text>
      <path fill="none" d="M975.4993 480.0203 L1189.5 480.0804 L1189.5 247.1102" stroke-width="2" clip-path="url(#clipPath2)"/>
      <path d="M1189.5 242.6102 L1182.75 256.1102 L1189.5 242.6102 L1196.25 256.1102 Z" stroke-width="2" clip-path="url(#clipPath2)" stroke="none"/>
      <path fill="none" stroke-miterlimit="10" d="M1189.5 242.6102 L1182.75 256.1102 L1189.5 242.6102 L1196.25 256.1102 Z" clip-path="url(#clipPath2)" stroke-linecap="square"/>
      <rect x="1074.3457" y="471.0673" clip-path="url(#clipPath2)" fill="white" width="25.4336" height="17.9688" stroke="none" stroke-width="2"/>
      <text x="1076.3457" xml:space="preserve" y="484.2059" clip-path="url(#clipPath2)" font-family="sans-serif" stroke="none">D,C</text>
      <path fill="none" d="M903 448.531 L903 401.5 L330 407.5 L330 442.9041" stroke-width="2" clip-path="url(#clipPath2)"/>
      <path d="M330 447.4041 L336.75 433.9041 L330 447.4041 L323.25 433.9041 Z" stroke-width="2" clip-path="url(#clipPath2)" stroke="none"/>
      <path fill="none" stroke-miterlimit="10" d="M330 447.4041 L336.75 433.9041 L330 447.4041 L323.25 433.9041 Z" clip-path="url(#clipPath2)" stroke-linecap="square"/>
      <rect x="603.7832" y="395.5156" clip-path="url(#clipPath2)" fill="white" width="25.4336" height="17.9688" stroke="none" stroke-width="2"/>
      <text x="605.7832" xml:space="preserve" y="408.6543" clip-path="url(#clipPath2)" font-family="sans-serif" stroke="none">D,C</text>
    </g>
  </g>
</svg>
