<?xml version="1.0" encoding="UTF-8"?><svg xmlns="http://www.w3.org/2000/svg" xmlns:xlink="http://www.w3.org/1999/xlink" fill-opacity="1" color-rendering="auto" color-interpolation="auto" text-rendering="auto" stroke="black" stroke-linecap="square" width="947" stroke-miterlimit="10" shape-rendering="auto" stroke-opacity="1" fill="black" stroke-dasharray="none" font-weight="normal" stroke-width="1" height="926" font-family="'Dialog'" font-style="normal" stroke-linejoin="miter" font-size="12px" stroke-dashoffset="0" image-rendering="auto">
  <!--Generated by ySVG 2.5-->
  <defs id="genericDefs"/>
  <g>
    <defs id="defs1">
      <linearGradient x1="557" gradientUnits="userSpaceOnUse" x2="738" y1="39" y2="119" id="linearGradient1" spreadMethod="reflect">
        <stop stop-opacity="1" stop-color="rgb(232,238,247)" offset="0%"/>
        <stop stop-opacity="1" stop-color="rgb(183,201,227)" offset="100%"/>
      </linearGradient>
      <linearGradient x1="542.5" gradientUnits="userSpaceOnUse" x2="752.5" y1="178" y2="264" id="linearGradient2" spreadMethod="reflect">
        <stop stop-opacity="1" stop-color="rgb(232,238,247)" offset="0%"/>
        <stop stop-opacity="1" stop-color="rgb(183,201,227)" offset="100%"/>
      </linearGradient>
      <linearGradient x1="865" gradientUnits="userSpaceOnUse" x2="1046" y1="181" y2="261" id="linearGradient3" spreadMethod="reflect">
        <stop stop-opacity="1" stop-color="rgb(232,238,247)" offset="0%"/>
        <stop stop-opacity="1" stop-color="rgb(183,201,227)" offset="100%"/>
      </linearGradient>
      <linearGradient x1="249" gradientUnits="userSpaceOnUse" x2="430" y1="184" y2="264" id="linearGradient4" spreadMethod="reflect">
        <stop stop-opacity="1" stop-color="rgb(232,238,247)" offset="0%"/>
        <stop stop-opacity="1" stop-color="rgb(183,201,227)" offset="100%"/>
      </linearGradient>
      <linearGradient x1="249" gradientUnits="userSpaceOnUse" x2="430" y1="351" y2="431" id="linearGradient5" spreadMethod="reflect">
        <stop stop-opacity="1" stop-color="rgb(232,238,247)" offset="0%"/>
        <stop stop-opacity="1" stop-color="rgb(183,201,227)" offset="100%"/>
      </linearGradient>
      <linearGradient x1="865" gradientUnits="userSpaceOnUse" x2="1046" y1="351" y2="431" id="linearGradient6" spreadMethod="reflect">
        <stop stop-opacity="1" stop-color="rgb(232,238,247)" offset="0%"/>
        <stop stop-opacity="1" stop-color="rgb(183,201,227)" offset="100%"/>
      </linearGradient>
      <linearGradient x1="805" gradientUnits="userSpaceOnUse" x2="1106" y1="521" y2="601" id="linearGradient7" spreadMethod="reflect">
        <stop stop-opacity="1" stop-color="rgb(232,238,247)" offset="0%"/>
        <stop stop-opacity="1" stop-color="rgb(183,201,227)" offset="100%"/>
      </linearGradient>
      <linearGradient x1="189" gradientUnits="userSpaceOnUse" x2="490" y1="518" y2="598" id="linearGradient8" spreadMethod="reflect">
        <stop stop-opacity="1" stop-color="rgb(232,238,247)" offset="0%"/>
        <stop stop-opacity="1" stop-color="rgb(183,201,227)" offset="100%"/>
      </linearGradient>
      <linearGradient x1="557" gradientUnits="userSpaceOnUse" x2="738" y1="854.75" y2="934.75" id="linearGradient9" spreadMethod="reflect">
        <stop stop-opacity="1" stop-color="rgb(232,238,247)" offset="0%"/>
        <stop stop-opacity="1" stop-color="rgb(183,201,227)" offset="100%"/>
      </linearGradient>
      <linearGradient x1="542.5" gradientUnits="userSpaceOnUse" x2="752.5" y1="670" y2="756" id="linearGradient10" spreadMethod="reflect">
        <stop stop-opacity="1" stop-color="rgb(232,238,247)" offset="0%"/>
        <stop stop-opacity="1" stop-color="rgb(183,201,227)" offset="100%"/>
      </linearGradient>
      <linearGradient x1="865" gradientUnits="userSpaceOnUse" x2="1046" y1="673" y2="753" id="linearGradient11" spreadMethod="reflect">
        <stop stop-opacity="1" stop-color="rgb(232,238,247)" offset="0%"/>
        <stop stop-opacity="1" stop-color="rgb(183,201,227)" offset="100%"/>
      </linearGradient>
      <linearGradient x1="249" gradientUnits="userSpaceOnUse" x2="430" y1="676" y2="756" id="linearGradient12" spreadMethod="reflect">
        <stop stop-opacity="1" stop-color="rgb(232,238,247)" offset="0%"/>
        <stop stop-opacity="1" stop-color="rgb(183,201,227)" offset="100%"/>
      </linearGradient>
      <clipPath clipPathUnits="userSpaceOnUse" id="clipPath1">
        <path d="M0 0 L947 0 L947 926 L0 926 L0 0 Z"/>
      </clipPath>
      <clipPath clipPathUnits="userSpaceOnUse" id="clipPath2">
        <path d="M174 24 L1121 24 L1121 950 L174 950 L174 24 Z"/>
      </clipPath>
    </defs>
    <g fill="white" text-rendering="geometricPrecision" shape-rendering="geometricPrecision" transform="translate(-174,-24)" stroke="white">
      <rect x="174" width="947" height="926" y="24" clip-path="url(#clipPath2)" stroke="none"/>
    </g>
    <g fill="url(#linearGradient1)" text-rendering="geometricPrecision" shape-rendering="geometricPrecision" transform="matrix(1,0,0,1,-174,-24)" stroke="url(#linearGradient1)">
      <rect x="557" y="39" clip-path="url(#clipPath2)" width="181" rx="40" ry="40" height="80" stroke="none"/>
    </g>
    <g text-rendering="geometricPrecision" stroke-miterlimit="1.45" shape-rendering="geometricPrecision" transform="matrix(1,0,0,1,-174,-24)" stroke-linecap="butt">
      <rect x="557" y="39" clip-path="url(#clipPath2)" fill="none" width="181" rx="40" ry="40" height="80"/>
      <text x="601.167" xml:space="preserve" y="83.1543" clip-path="url(#clipPath2)" font-family="sans-serif" stroke="none">/TR/shortname/</text>
    </g>
    <g fill="url(#linearGradient2)" text-rendering="geometricPrecision" shape-rendering="geometricPrecision" transform="matrix(1,0,0,1,-174,-24)" stroke="url(#linearGradient2)">
      <path d="M647.5 178 L752.5 221 L647.5 264 L542.5 221 Z" stroke="none" clip-path="url(#clipPath2)"/>
    </g>
    <g text-rendering="geometricPrecision" stroke-miterlimit="1.45" shape-rendering="geometricPrecision" transform="matrix(1,0,0,1,-174,-24)" stroke-linecap="butt">
      <path fill="none" d="M647.5 178 L752.5 221 L647.5 264 L542.5 221 Z" clip-path="url(#clipPath2)"/>
      <text x="610.2783" xml:space="preserve" y="225.1543" clip-path="url(#clipPath2)" font-family="sans-serif" stroke="none">WG decision</text>
    </g>
    <g fill="url(#linearGradient3)" text-rendering="geometricPrecision" shape-rendering="geometricPrecision" transform="matrix(1,0,0,1,-174,-24)" stroke="url(#linearGradient3)">
      <rect x="865" y="181" clip-path="url(#clipPath2)" width="181" rx="40" ry="40" height="80" stroke="none"/>
    </g>
    <g text-rendering="geometricPrecision" stroke-miterlimit="1.45" shape-rendering="geometricPrecision" transform="matrix(1,0,0,1,-174,-24)" stroke-linecap="butt">
      <rect x="865" y="181" clip-path="url(#clipPath2)" fill="none" width="181" rx="40" ry="40" height="80"/>
      <text x="887.9062" xml:space="preserve" y="225.1543" clip-path="url(#clipPath2)" font-family="sans-serif" stroke="none">/TR/shortname/higher/</text>
    </g>
    <g fill="url(#linearGradient4)" text-rendering="geometricPrecision" shape-rendering="geometricPrecision" transform="matrix(1,0,0,1,-174,-24)" stroke="url(#linearGradient4)">
      <rect x="249" y="184" clip-path="url(#clipPath2)" width="181" rx="40" ry="40" height="80" stroke="none"/>
    </g>
    <g text-rendering="geometricPrecision" stroke-miterlimit="1.45" shape-rendering="geometricPrecision" transform="matrix(1,0,0,1,-174,-24)" stroke-linecap="butt">
      <rect x="249" y="184" clip-path="url(#clipPath2)" fill="none" width="181" rx="40" ry="40" height="80"/>
      <text x="274.2793" xml:space="preserve" y="228.1543" clip-path="url(#clipPath2)" font-family="sans-serif" stroke="none">/TR/shortname/latest/</text>
    </g>
    <g fill="url(#linearGradient5)" text-rendering="geometricPrecision" shape-rendering="geometricPrecision" transform="matrix(1,0,0,1,-174,-24)" stroke="url(#linearGradient5)">
      <rect x="249" y="351" clip-path="url(#clipPath2)" width="181" rx="40" ry="40" height="80" stroke="none"/>
    </g>
    <g text-rendering="geometricPrecision" stroke-miterlimit="1.45" shape-rendering="geometricPrecision" transform="matrix(1,0,0,1,-174,-24)" stroke-linecap="butt">
      <rect x="249" y="351" clip-path="url(#clipPath2)" fill="none" width="181" rx="40" ry="40" height="80"/>
      <text x="287.1846" xml:space="preserve" y="395.1543" clip-path="url(#clipPath2)" font-family="sans-serif" stroke="none">/TR/shortname-2/</text>
    </g>
    <g fill="url(#linearGradient6)" text-rendering="geometricPrecision" shape-rendering="geometricPrecision" transform="matrix(1,0,0,1,-174,-24)" stroke="url(#linearGradient6)">
      <rect x="865" y="351" clip-path="url(#clipPath2)" width="181" rx="40" ry="40" height="80" stroke="none"/>
    </g>
    <g text-rendering="geometricPrecision" stroke-miterlimit="1.45" shape-rendering="geometricPrecision" transform="matrix(1,0,0,1,-174,-24)" stroke-linecap="butt">
      <rect x="865" y="351" clip-path="url(#clipPath2)" fill="none" width="181" rx="40" ry="40" height="80"/>
      <text x="903.1846" xml:space="preserve" y="395.1543" clip-path="url(#clipPath2)" font-family="sans-serif" stroke="none">/TR/shortname-1/</text>
    </g>
    <g fill="url(#linearGradient7)" text-rendering="geometricPrecision" shape-rendering="geometricPrecision" transform="matrix(1,0,0,1,-174,-24)" stroke="url(#linearGradient7)">
      <rect x="805" y="521" clip-path="url(#clipPath2)" width="301" rx="40" ry="40" height="80" stroke="none"/>
    </g>
    <g text-rendering="geometricPrecision" stroke-miterlimit="1.45" shape-rendering="geometricPrecision" transform="matrix(1,0,0,1,-174,-24)" stroke-linecap="butt">
      <rect x="805" y="521" clip-path="url(#clipPath2)" fill="none" width="301" rx="40" ry="40" height="80"/>
      <text x="839.6982" xml:space="preserve" y="565.1543" clip-path="url(#clipPath2)" font-family="sans-serif" stroke="none">/TR/YYYY/XX-shortname-1-YYYYMMDD/</text>
    </g>
    <g fill="url(#linearGradient8)" text-rendering="geometricPrecision" shape-rendering="geometricPrecision" transform="matrix(1,0,0,1,-174,-24)" stroke="url(#linearGradient8)">
      <rect x="189" y="518" clip-path="url(#clipPath2)" width="301" rx="40" ry="40" height="80" stroke="none"/>
    </g>
    <g text-rendering="geometricPrecision" stroke-miterlimit="1.45" shape-rendering="geometricPrecision" transform="matrix(1,0,0,1,-174,-24)" stroke-linecap="butt">
      <rect x="189" y="518" clip-path="url(#clipPath2)" fill="none" width="301" rx="40" ry="40" height="80"/>
      <text x="223.6982" xml:space="preserve" y="562.1543" clip-path="url(#clipPath2)" font-family="sans-serif" stroke="none">/TR/YYYY/XX-shortname-2-YYYYMMDD/</text>
    </g>
    <g fill="url(#linearGradient9)" text-rendering="geometricPrecision" shape-rendering="geometricPrecision" transform="matrix(1,0,0,1,-174,-24)" stroke="url(#linearGradient9)">
      <rect x="557" y="854.75" clip-path="url(#clipPath2)" width="181" rx="40" ry="40" height="80" stroke="none"/>
    </g>
    <g text-rendering="geometricPrecision" stroke-miterlimit="1.45" shape-rendering="geometricPrecision" transform="matrix(1,0,0,1,-174,-24)" stroke-linecap="butt">
      <rect x="557" y="854.75" clip-path="url(#clipPath2)" fill="none" width="181" rx="40" ry="40" height="80"/>
      <text x="591.6455" xml:space="preserve" y="898.9043" clip-path="url(#clipPath2)" font-family="sans-serif" stroke="none">/TR/shortname/ed/</text>
    </g>
    <g fill="url(#linearGradient10)" text-rendering="geometricPrecision" shape-rendering="geometricPrecision" transform="matrix(1,0,0,1,-174,-24)" stroke="url(#linearGradient10)">
      <path d="M647.5 670 L752.5 713 L647.5 756 L542.5 713 Z" stroke="none" clip-path="url(#clipPath2)"/>
    </g>
    <g text-rendering="geometricPrecision" stroke-miterlimit="1.45" shape-rendering="geometricPrecision" transform="matrix(1,0,0,1,-174,-24)" stroke-linecap="butt">
      <path fill="none" d="M647.5 670 L752.5 713 L647.5 756 L542.5 713 Z" clip-path="url(#clipPath2)"/>
      <text x="610.2783" xml:space="preserve" y="717.1543" clip-path="url(#clipPath2)" font-family="sans-serif" stroke="none">WG decision</text>
    </g>
    <g fill="url(#linearGradient11)" text-rendering="geometricPrecision" shape-rendering="geometricPrecision" transform="matrix(1,0,0,1,-174,-24)" stroke="url(#linearGradient11)">
      <rect x="865" y="673" clip-path="url(#clipPath2)" width="181" rx="40" ry="40" height="80" stroke="none"/>
    </g>
    <g text-rendering="geometricPrecision" stroke-miterlimit="1.45" shape-rendering="geometricPrecision" transform="matrix(1,0,0,1,-174,-24)" stroke-linecap="butt">
      <rect x="865" y="673" clip-path="url(#clipPath2)" fill="none" width="181" rx="40" ry="40" height="80"/>
      <text x="906.7646" xml:space="preserve" y="717.1543" clip-path="url(#clipPath2)" font-family="sans-serif" stroke="none">shortname-1 ED</text>
    </g>
    <g fill="url(#linearGradient12)" text-rendering="geometricPrecision" shape-rendering="geometricPrecision" transform="matrix(1,0,0,1,-174,-24)" stroke="url(#linearGradient12)">
      <rect x="249" y="676" clip-path="url(#clipPath2)" width="181" rx="40" ry="40" height="80" stroke="none"/>
    </g>
    <g text-rendering="geometricPrecision" stroke-miterlimit="1.45" shape-rendering="geometricPrecision" transform="matrix(1,0,0,1,-174,-24)" stroke-linecap="butt">
      <rect x="249" y="676" clip-path="url(#clipPath2)" fill="none" width="181" rx="40" ry="40" height="80"/>
      <text x="290.7646" xml:space="preserve" y="720.1543" clip-path="url(#clipPath2)" font-family="sans-serif" stroke="none">shortname-2 ED</text>
    </g>
    <g text-rendering="geometricPrecision" stroke-miterlimit="1.45" stroke-width="3" shape-rendering="geometricPrecision" transform="matrix(1,0,0,1,-174,-24)" stroke-linecap="butt">
      <path fill="none" d="M647.5 118.9722 L647.5 171.7568" clip-path="url(#clipPath2)"/>
    </g>
    <g text-rendering="geometricPrecision" stroke-miterlimit="1.45" stroke-width="3" shape-rendering="geometricPrecision" transform="matrix(1,0,0,1,-174,-24)" stroke-linecap="butt">
      <path d="M647.5 176.7568 L655 161.7568 L647.5 176.7568 L640 161.7568 Z" stroke="none" clip-path="url(#clipPath2)"/>
      <path fill="none" stroke-miterlimit="10" d="M647.5 176.7568 L655 161.7568 L647.5 176.7568 L640 161.7568 Z" stroke-width="1" clip-path="url(#clipPath2)" stroke-linecap="square"/>
      <text x="600.6426" y="152.6543" clip-path="url(#clipPath2)" font-family="sans-serif" stroke="none" stroke-width="1" xml:space="preserve">Proxy</text>
      <path fill="none" stroke-dasharray="6,2" d="M752.5103 221 L859.9575 221" stroke-width="1" clip-path="url(#clipPath2)"/>
      <path stroke-dasharray="6,2" d="M863.9575 221 L851.9575 215 L863.9575 221 L851.9575 227 Z" stroke-width="1" clip-path="url(#clipPath2)" stroke="none"/>
      <path fill="none" stroke-miterlimit="10" d="M863.9575 221 L851.9575 215 L863.9575 221 L851.9575 227 Z" stroke-width="1" clip-path="url(#clipPath2)" stroke-linecap="square"/>
      <path fill="none" stroke-dasharray="6,2" d="M544.9712 221.9987 L434.9703 223.0701" stroke-width="1" clip-path="url(#clipPath2)"/>
      <path stroke-dasharray="6,2" d="M430.9705 223.1091 L443.0284 228.9919 L430.9705 223.1091 L442.9115 216.9925 Z" stroke-width="1" clip-path="url(#clipPath2)" stroke="none"/>
      <path fill="none" stroke-miterlimit="10" d="M430.9705 223.1091 L443.0284 228.9919 L430.9705 223.1091 L442.9115 216.9925 Z" stroke-width="1" clip-path="url(#clipPath2)" stroke-linecap="square"/>
      <path fill="none" d="M339.5 263.9968 L339.5 344.7204" clip-path="url(#clipPath2)"/>
      <path d="M339.5 349.7204 L347 334.7204 L339.5 349.7204 L332 334.7204 Z" clip-path="url(#clipPath2)" stroke="none"/>
      <path fill="none" stroke-miterlimit="10" d="M339.5 349.7204 L347 334.7204 L339.5 349.7204 L332 334.7204 Z" stroke-width="1" clip-path="url(#clipPath2)" stroke-linecap="square"/>
      <text x="292.6426" y="311.6543" clip-path="url(#clipPath2)" font-family="sans-serif" stroke="none" stroke-width="1" xml:space="preserve">Proxy</text>
      <path fill="none" d="M955.5 260.9683 L955.5 344.7183" clip-path="url(#clipPath2)"/>
      <path d="M955.5 349.7183 L963 334.7183 L955.5 349.7183 L948 334.7183 Z" clip-path="url(#clipPath2)" stroke="none"/>
      <path fill="none" stroke-miterlimit="10" d="M955.5 349.7183 L963 334.7183 L955.5 349.7183 L948 334.7183 Z" stroke-width="1" clip-path="url(#clipPath2)" stroke-linecap="square"/>
      <text x="908.6426" y="310.1543" clip-path="url(#clipPath2)" font-family="sans-serif" stroke="none" stroke-width="1" xml:space="preserve">Proxy</text>
      <path fill="none" d="M955.5 430.9683 L955.5 514.7183" clip-path="url(#clipPath2)"/>
      <path d="M955.5 519.7183 L963 504.7183 L955.5 519.7183 L948 504.7183 Z" clip-path="url(#clipPath2)" stroke="none"/>
      <path fill="none" stroke-miterlimit="10" d="M955.5 519.7183 L963 504.7183 L955.5 519.7183 L948 504.7183 Z" stroke-width="1" clip-path="url(#clipPath2)" stroke-linecap="square"/>
      <text x="908.6426" y="480.1543" clip-path="url(#clipPath2)" font-family="sans-serif" stroke="none" stroke-width="1" xml:space="preserve">Proxy</text>
      <path fill="none" d="M339.5 430.9968 L339.5 511.7204" clip-path="url(#clipPath2)"/>
      <path d="M339.5 516.7205 L347 501.7205 L339.5 516.7205 L332 501.7205 Z" clip-path="url(#clipPath2)" stroke="none"/>
      <path fill="none" stroke-miterlimit="10" d="M339.5 516.7205 L347 501.7205 L339.5 516.7205 L332 501.7205 Z" stroke-width="1" clip-path="url(#clipPath2)" stroke-linecap="square"/>
      <text x="292.6426" y="478.6543" clip-path="url(#clipPath2)" font-family="sans-serif" stroke="none" stroke-width="1" xml:space="preserve">Proxy</text>
      <path fill="none" d="M647.5 854.7703 L647.5 762.2726" clip-path="url(#clipPath2)"/>
      <path d="M647.5 757.2726 L640 772.2726 L647.5 757.2726 L655 772.2726 Z" clip-path="url(#clipPath2)" stroke="none"/>
      <path fill="none" stroke-miterlimit="10" d="M647.5 757.2726 L640 772.2726 L647.5 757.2726 L655 772.2726 Z" stroke-width="1" clip-path="url(#clipPath2)" stroke-linecap="square"/>
      <text x="654.0566" y="809.5293" clip-path="url(#clipPath2)" font-family="sans-serif" stroke="none" stroke-width="1" xml:space="preserve">redirect</text>
      <path fill="none" stroke-dasharray="6,2" d="M752.5103 713 L859.9575 713" stroke-width="1" clip-path="url(#clipPath2)"/>
      <path stroke-dasharray="6,2" d="M863.9575 713 L851.9575 707 L863.9575 713 L851.9575 719 Z" stroke-width="1" clip-path="url(#clipPath2)" stroke="none"/>
      <path fill="none" stroke-miterlimit="10" d="M863.9575 713 L851.9575 707 L863.9575 713 L851.9575 719 Z" stroke-width="1" clip-path="url(#clipPath2)" stroke-linecap="square"/>
      <path fill="none" stroke-dasharray="6,2" d="M544.9712 713.9987 L434.9703 715.0701" stroke-width="1" clip-path="url(#clipPath2)"/>
      <path stroke-dasharray="6,2" d="M430.9705 715.109 L443.0284 720.9919 L430.9705 715.109 L442.9115 708.9924 Z" stroke-width="1" clip-path="url(#clipPath2)" stroke="none"/>
      <path fill="none" stroke-miterlimit="10" d="M430.9705 715.109 L443.0284 720.9919 L430.9705 715.109 L442.9115 708.9924 Z" stroke-width="1" clip-path="url(#clipPath2)" stroke-linecap="square"/>
    </g>
  </g>
</svg>
