<?xml version="1.0" encoding="UTF-8"?><svg xmlns="http://www.w3.org/2000/svg" xmlns:xlink="http://www.w3.org/1999/xlink" fill-opacity="1" color-rendering="auto" color-interpolation="auto" text-rendering="auto" stroke="black" stroke-linecap="square" width="1455" stroke-miterlimit="10" shape-rendering="auto" stroke-opacity="1" fill="black" stroke-dasharray="none" font-weight="normal" stroke-width="1" height="641" font-family="'Dialog'" font-style="normal" stroke-linejoin="miter" font-size="12px" stroke-dashoffset="0" image-rendering="auto">
  <!--Generated by ySVG 2.5-->
  <defs id="genericDefs"/>
  <g>
    <defs id="defs1">
      <linearGradient x1="557" gradientUnits="userSpaceOnUse" x2="738" y1="39" y2="119" id="linearGradient1" spreadMethod="reflect">
        <stop stop-opacity="1" stop-color="rgb(232,238,247)" offset="0%"/>
        <stop stop-opacity="1" stop-color="rgb(183,201,227)" offset="100%"/>
      </linearGradient>
      <linearGradient x1="1118.75" gradientUnits="userSpaceOnUse" x2="1299.75" y1="211.7" y2="291.7" id="linearGradient2" spreadMethod="reflect">
        <stop stop-opacity="1" stop-color="rgb(232,238,247)" offset="0%"/>
        <stop stop-opacity="1" stop-color="rgb(183,201,227)" offset="100%"/>
      </linearGradient>
      <linearGradient x1="-4.75" gradientUnits="userSpaceOnUse" x2="176.25" y1="211.7" y2="291.7" id="linearGradient3" spreadMethod="reflect">
        <stop stop-opacity="1" stop-color="rgb(232,238,247)" offset="0%"/>
        <stop stop-opacity="1" stop-color="rgb(183,201,227)" offset="100%"/>
      </linearGradient>
      <linearGradient x1="-4.75" gradientUnits="userSpaceOnUse" x2="176.25" y1="354" y2="434" id="linearGradient4" spreadMethod="reflect">
        <stop stop-opacity="1" stop-color="rgb(232,238,247)" offset="0%"/>
        <stop stop-opacity="1" stop-color="rgb(183,201,227)" offset="100%"/>
      </linearGradient>
      <linearGradient x1="1118.75" gradientUnits="userSpaceOnUse" x2="1299.75" y1="358.5" y2="438.5" id="linearGradient5" spreadMethod="reflect">
        <stop stop-opacity="1" stop-color="rgb(232,238,247)" offset="0%"/>
        <stop stop-opacity="1" stop-color="rgb(183,201,227)" offset="100%"/>
      </linearGradient>
      <linearGradient x1="1058.75" gradientUnits="userSpaceOnUse" x2="1359.75" y1="518" y2="598" id="linearGradient6" spreadMethod="reflect">
        <stop stop-opacity="1" stop-color="rgb(232,238,247)" offset="0%"/>
        <stop stop-opacity="1" stop-color="rgb(183,201,227)" offset="100%"/>
      </linearGradient>
      <linearGradient x1="-64.75" gradientUnits="userSpaceOnUse" x2="236.25" y1="521" y2="601" id="linearGradient7" spreadMethod="reflect">
        <stop stop-opacity="1" stop-color="rgb(232,238,247)" offset="0%"/>
        <stop stop-opacity="1" stop-color="rgb(183,201,227)" offset="100%"/>
      </linearGradient>
      <linearGradient x1="557" gradientUnits="userSpaceOnUse" x2="738" y1="569.75" y2="649.75" id="linearGradient8" spreadMethod="reflect">
        <stop stop-opacity="1" stop-color="rgb(232,238,247)" offset="0%"/>
        <stop stop-opacity="1" stop-color="rgb(183,201,227)" offset="100%"/>
      </linearGradient>
      <linearGradient x1="865" gradientUnits="userSpaceOnUse" x2="1046" y1="358.5" y2="438.5" id="linearGradient9" spreadMethod="reflect">
        <stop stop-opacity="1" stop-color="rgb(232,238,247)" offset="0%"/>
        <stop stop-opacity="1" stop-color="rgb(183,201,227)" offset="100%"/>
      </linearGradient>
      <linearGradient x1="249" gradientUnits="userSpaceOnUse" x2="430" y1="354" y2="434" id="linearGradient10" spreadMethod="reflect">
        <stop stop-opacity="1" stop-color="rgb(232,238,247)" offset="0%"/>
        <stop stop-opacity="1" stop-color="rgb(183,201,227)" offset="100%"/>
      </linearGradient>
      <linearGradient x1="468.125" gradientUnits="userSpaceOnUse" x2="826.875" y1="186.5" y2="471.5" id="linearGradient11" spreadMethod="reflect">
        <stop stop-opacity="1" stop-color="rgb(232,238,247)" offset="0%"/>
        <stop stop-opacity="1" stop-color="rgb(183,201,227)" offset="100%"/>
      </linearGradient>
      <linearGradient x1="571.5125" gradientUnits="userSpaceOnUse" x2="723.4875" y1="208.7" y2="294.7" id="linearGradient12" spreadMethod="reflect">
        <stop stop-opacity="1" stop-color="rgb(232,238,247)" offset="0%"/>
        <stop stop-opacity="1" stop-color="rgb(183,201,227)" offset="100%"/>
      </linearGradient>
      <linearGradient x1="571.5125" gradientUnits="userSpaceOnUse" x2="723.4875" y1="355.5" y2="441.5" id="linearGradient13" spreadMethod="reflect">
        <stop stop-opacity="1" stop-color="rgb(232,238,247)" offset="0%"/>
        <stop stop-opacity="1" stop-color="rgb(183,201,227)" offset="100%"/>
      </linearGradient>
      <clipPath clipPathUnits="userSpaceOnUse" id="clipPath1">
        <path d="M0 0 L1455 0 L1455 641 L0 641 L0 0 Z"/>
      </clipPath>
      <clipPath clipPathUnits="userSpaceOnUse" id="clipPath2">
        <path d="M-80 24 L1375 24 L1375 665 L-80 665 L-80 24 Z"/>
      </clipPath>
    </defs>
    <g fill="white" text-rendering="geometricPrecision" shape-rendering="geometricPrecision" transform="translate(80,-24)" stroke="white">
      <rect x="-80" width="1455" height="641" y="24" clip-path="url(#clipPath2)" stroke="none"/>
    </g>
    <g fill="url(#linearGradient1)" text-rendering="geometricPrecision" shape-rendering="geometricPrecision" transform="matrix(1,0,0,1,80,-24)" stroke="url(#linearGradient1)">
      <rect x="557" y="39" clip-path="url(#clipPath2)" width="181" rx="40" ry="40" height="80" stroke="none"/>
    </g>
    <g text-rendering="geometricPrecision" stroke-miterlimit="1.45" shape-rendering="geometricPrecision" transform="matrix(1,0,0,1,80,-24)" stroke-linecap="butt">
      <rect x="557" y="39" clip-path="url(#clipPath2)" fill="none" width="181" rx="40" ry="40" height="80"/>
      <text x="601.167" xml:space="preserve" y="83.1543" clip-path="url(#clipPath2)" font-family="sans-serif" stroke="none">/TR/shortname/</text>
    </g>
    <g fill="url(#linearGradient2)" text-rendering="geometricPrecision" shape-rendering="geometricPrecision" transform="matrix(1,0,0,1,80,-24)" stroke="url(#linearGradient2)">
      <rect x="1118.75" y="211.7" clip-path="url(#clipPath2)" width="181" rx="40" ry="40" height="80" stroke="none"/>
    </g>
    <g text-rendering="geometricPrecision" stroke-miterlimit="1.45" shape-rendering="geometricPrecision" transform="matrix(1,0,0,1,80,-24)" stroke-linecap="butt">
      <rect x="1118.75" y="211.7" clip-path="url(#clipPath2)" fill="none" width="181" rx="40" ry="40" height="80"/>
      <text x="1141.6562" xml:space="preserve" y="255.8543" clip-path="url(#clipPath2)" font-family="sans-serif" stroke="none">/TR/shortname/higher/</text>
    </g>
    <g fill="url(#linearGradient3)" text-rendering="geometricPrecision" shape-rendering="geometricPrecision" transform="matrix(1,0,0,1,80,-24)" stroke="url(#linearGradient3)">
      <rect x="-4.75" y="211.7" clip-path="url(#clipPath2)" width="181" rx="40" ry="40" height="80" stroke="none"/>
    </g>
    <g text-rendering="geometricPrecision" stroke-miterlimit="1.45" shape-rendering="geometricPrecision" transform="matrix(1,0,0,1,80,-24)" stroke-linecap="butt">
      <rect x="-4.75" y="211.7" clip-path="url(#clipPath2)" fill="none" width="181" rx="40" ry="40" height="80"/>
      <text x="20.5293" xml:space="preserve" y="255.8543" clip-path="url(#clipPath2)" font-family="sans-serif" stroke="none">/TR/shortname/latest/</text>
    </g>
    <g fill="url(#linearGradient4)" text-rendering="geometricPrecision" shape-rendering="geometricPrecision" transform="matrix(1,0,0,1,80,-24)" stroke="url(#linearGradient4)">
      <rect x="-4.75" y="354" clip-path="url(#clipPath2)" width="181" rx="40" ry="40" height="80" stroke="none"/>
    </g>
    <g text-rendering="geometricPrecision" stroke-miterlimit="1.45" shape-rendering="geometricPrecision" transform="matrix(1,0,0,1,80,-24)" stroke-linecap="butt">
      <rect x="-4.75" y="354" clip-path="url(#clipPath2)" fill="none" width="181" rx="40" ry="40" height="80"/>
      <text x="33.4346" xml:space="preserve" y="398.1543" clip-path="url(#clipPath2)" font-family="sans-serif" stroke="none">/TR/shortname-2/</text>
    </g>
    <g fill="url(#linearGradient5)" text-rendering="geometricPrecision" shape-rendering="geometricPrecision" transform="matrix(1,0,0,1,80,-24)" stroke="url(#linearGradient5)">
      <rect x="1118.75" y="358.5" clip-path="url(#clipPath2)" width="181" rx="40" ry="40" height="80" stroke="none"/>
    </g>
    <g text-rendering="geometricPrecision" stroke-miterlimit="1.45" shape-rendering="geometricPrecision" transform="matrix(1,0,0,1,80,-24)" stroke-linecap="butt">
      <rect x="1118.75" y="358.5" clip-path="url(#clipPath2)" fill="none" width="181" rx="40" ry="40" height="80"/>
      <text x="1156.9346" xml:space="preserve" y="402.6543" clip-path="url(#clipPath2)" font-family="sans-serif" stroke="none">/TR/shortname-1/</text>
    </g>
    <g fill="url(#linearGradient6)" text-rendering="geometricPrecision" shape-rendering="geometricPrecision" transform="matrix(1,0,0,1,80,-24)" stroke="url(#linearGradient6)">
      <rect x="1058.75" y="518" clip-path="url(#clipPath2)" width="301" rx="40" ry="40" height="80" stroke="none"/>
    </g>
    <g text-rendering="geometricPrecision" stroke-miterlimit="1.45" shape-rendering="geometricPrecision" transform="matrix(1,0,0,1,80,-24)" stroke-linecap="butt">
      <rect x="1058.75" y="518" clip-path="url(#clipPath2)" fill="none" width="301" rx="40" ry="40" height="80"/>
      <text x="1093.4482" xml:space="preserve" y="562.1543" clip-path="url(#clipPath2)" font-family="sans-serif" stroke="none">/TR/YYYY/XX-shortname-1-YYYYMMDD/</text>
    </g>
    <g fill="url(#linearGradient7)" text-rendering="geometricPrecision" shape-rendering="geometricPrecision" transform="matrix(1,0,0,1,80,-24)" stroke="url(#linearGradient7)">
      <rect x="-64.75" y="521" clip-path="url(#clipPath2)" width="301" rx="40" ry="40" height="80" stroke="none"/>
    </g>
    <g text-rendering="geometricPrecision" stroke-miterlimit="1.45" shape-rendering="geometricPrecision" transform="matrix(1,0,0,1,80,-24)" stroke-linecap="butt">
      <rect x="-64.75" y="521" clip-path="url(#clipPath2)" fill="none" width="301" rx="40" ry="40" height="80"/>
      <text x="-30.0518" xml:space="preserve" y="565.1543" clip-path="url(#clipPath2)" font-family="sans-serif" stroke="none">/TR/YYYY/XX-shortname-2-YYYYMMDD/</text>
    </g>
    <g fill="url(#linearGradient8)" text-rendering="geometricPrecision" shape-rendering="geometricPrecision" transform="matrix(1,0,0,1,80,-24)" stroke="url(#linearGradient8)">
      <rect x="557" y="569.75" clip-path="url(#clipPath2)" width="181" rx="40" ry="40" height="80" stroke="none"/>
    </g>
    <g text-rendering="geometricPrecision" stroke-miterlimit="1.45" shape-rendering="geometricPrecision" transform="matrix(1,0,0,1,80,-24)" stroke-linecap="butt">
      <rect x="557" y="569.75" clip-path="url(#clipPath2)" fill="none" width="181" rx="40" ry="40" height="80"/>
      <text x="591.6455" xml:space="preserve" y="613.9043" clip-path="url(#clipPath2)" font-family="sans-serif" stroke="none">/TR/shortname/ed/</text>
    </g>
    <g fill="url(#linearGradient9)" text-rendering="geometricPrecision" shape-rendering="geometricPrecision" transform="matrix(1,0,0,1,80,-24)" stroke="url(#linearGradient9)">
      <rect x="865" y="358.5" clip-path="url(#clipPath2)" width="181" rx="40" ry="40" height="80" stroke="none"/>
    </g>
    <g text-rendering="geometricPrecision" stroke-miterlimit="1.45" shape-rendering="geometricPrecision" transform="matrix(1,0,0,1,80,-24)" stroke-linecap="butt">
      <rect x="865" y="358.5" clip-path="url(#clipPath2)" fill="none" width="181" rx="40" ry="40" height="80"/>
      <text x="906.7646" xml:space="preserve" y="402.6543" clip-path="url(#clipPath2)" font-family="sans-serif" stroke="none">shortname-1 ED</text>
    </g>
    <g fill="url(#linearGradient10)" text-rendering="geometricPrecision" shape-rendering="geometricPrecision" transform="matrix(1,0,0,1,80,-24)" stroke="url(#linearGradient10)">
      <rect x="249" y="354" clip-path="url(#clipPath2)" width="181" rx="40" ry="40" height="80" stroke="none"/>
    </g>
    <g text-rendering="geometricPrecision" stroke-miterlimit="1.45" shape-rendering="geometricPrecision" transform="matrix(1,0,0,1,80,-24)" stroke-linecap="butt">
      <rect x="249" y="354" clip-path="url(#clipPath2)" fill="none" width="181" rx="40" ry="40" height="80"/>
      <text x="290.7646" xml:space="preserve" y="398.1543" clip-path="url(#clipPath2)" font-family="sans-serif" stroke="none">shortname-2 ED</text>
    </g>
    <g fill="url(#linearGradient11)" text-rendering="geometricPrecision" shape-rendering="geometricPrecision" transform="matrix(1,0,0,1,80,-24)" stroke="url(#linearGradient11)">
      <path d="M468.125 186.5 L826.875 186.5 L826.875 471.5 L468.125 471.5 Z" stroke="none" clip-path="url(#clipPath2)"/>
    </g>
    <g text-rendering="geometricPrecision" stroke-miterlimit="1.45" shape-rendering="geometricPrecision" transform="matrix(1,0,0,1,80,-24)" stroke-linecap="butt">
      <path fill="none" d="M468.125 186.5 L826.875 186.5 L826.875 471.5 L468.125 471.5 Z" clip-path="url(#clipPath2)"/>
      <text x="610.2783" xml:space="preserve" y="333.1543" clip-path="url(#clipPath2)" font-family="sans-serif" stroke="none">WG decision</text>
    </g>
    <g fill="url(#linearGradient12)" text-rendering="geometricPrecision" shape-rendering="geometricPrecision" transform="matrix(1,0,0,1,80,-24)" stroke="url(#linearGradient12)">
      <path d="M647.5 208.7 L723.4875 251.7 L647.5 294.7 L571.5125 251.7 Z" stroke="none" clip-path="url(#clipPath2)"/>
    </g>
    <g text-rendering="geometricPrecision" stroke-miterlimit="1.45" shape-rendering="geometricPrecision" transform="matrix(1,0,0,1,80,-24)" stroke-linecap="butt">
      <path fill="none" d="M647.5 208.7 L723.4875 251.7 L647.5 294.7 L571.5125 251.7 Z" clip-path="url(#clipPath2)"/>
    </g>
    <g fill="url(#linearGradient13)" text-rendering="geometricPrecision" shape-rendering="geometricPrecision" transform="matrix(1,0,0,1,80,-24)" stroke="url(#linearGradient13)">
      <path d="M647.5 355.5 L723.4875 398.5 L647.5 441.5 L571.5125 398.5 Z" stroke="none" clip-path="url(#clipPath2)"/>
    </g>
    <g text-rendering="geometricPrecision" stroke-miterlimit="1.45" shape-rendering="geometricPrecision" transform="matrix(1,0,0,1,80,-24)" stroke-linecap="butt">
      <path fill="none" d="M647.5 355.5 L723.4875 398.5 L647.5 441.5 L571.5125 398.5 Z" clip-path="url(#clipPath2)"/>
    </g>
    <g text-rendering="geometricPrecision" stroke-miterlimit="1.45" stroke-width="3" shape-rendering="geometricPrecision" transform="matrix(1,0,0,1,80,-24)" stroke-linecap="butt">
      <path fill="none" d="M85.75 291.6871 L85.75 347.7341" clip-path="url(#clipPath2)"/>
    </g>
    <g text-rendering="geometricPrecision" stroke-miterlimit="1.45" stroke-width="3" shape-rendering="geometricPrecision" transform="matrix(1,0,0,1,80,-24)" stroke-linecap="butt">
      <path d="M85.75 352.7341 L93.25 337.7341 L85.75 352.7341 L78.25 337.7341 Z" stroke="none" clip-path="url(#clipPath2)"/>
      <path fill="none" stroke-miterlimit="10" d="M85.75 352.7341 L93.25 337.7341 L85.75 352.7341 L78.25 337.7341 Z" stroke-width="1" clip-path="url(#clipPath2)" stroke-linecap="square"/>
      <text x="38.8926" y="327.0043" clip-path="url(#clipPath2)" font-family="sans-serif" stroke="none" stroke-width="1" xml:space="preserve">Proxy</text>
      <path fill="none" d="M1209.25 291.7331 L1209.25 352.2385" clip-path="url(#clipPath2)"/>
      <path d="M1209.25 357.2385 L1216.75 342.2385 L1209.25 357.2385 L1201.75 342.2385 Z" clip-path="url(#clipPath2)" stroke="none"/>
      <path fill="none" stroke-miterlimit="10" d="M1209.25 357.2385 L1216.75 342.2385 L1209.25 357.2385 L1201.75 342.2385 Z" stroke-width="1" clip-path="url(#clipPath2)" stroke-linecap="square"/>
      <text x="1162.3926" y="329.2543" clip-path="url(#clipPath2)" font-family="sans-serif" stroke="none" stroke-width="1" xml:space="preserve">Proxy</text>
      <path fill="none" d="M1209.25 438.4918 L1209.25 511.7486" clip-path="url(#clipPath2)"/>
      <path d="M1209.25 516.7486 L1216.75 501.7486 L1209.25 516.7486 L1201.75 501.7486 Z" clip-path="url(#clipPath2)" stroke="none"/>
      <path fill="none" stroke-miterlimit="10" d="M1209.25 516.7486 L1216.75 501.7486 L1209.25 516.7486 L1201.75 501.7486 Z" stroke-width="1" clip-path="url(#clipPath2)" stroke-linecap="square"/>
      <text x="1162.3926" y="482.4043" clip-path="url(#clipPath2)" font-family="sans-serif" stroke="none" stroke-width="1" xml:space="preserve">Proxy</text>
      <path fill="none" d="M85.75 433.9968 L85.75 514.7205" clip-path="url(#clipPath2)"/>
      <path d="M85.75 519.7205 L93.25 504.7205 L85.75 519.7205 L78.25 504.7205 Z" clip-path="url(#clipPath2)" stroke="none"/>
      <path fill="none" stroke-miterlimit="10" d="M85.75 519.7205 L93.25 504.7205 L85.75 519.7205 L78.25 504.7205 Z" stroke-width="1" clip-path="url(#clipPath2)" stroke-linecap="square"/>
      <text x="38.8926" y="481.6543" clip-path="url(#clipPath2)" font-family="sans-serif" stroke="none" stroke-width="1" xml:space="preserve">Proxy</text>
      <path fill="none" d="M647.5 119.0128 L647.5 202.4627" clip-path="url(#clipPath2)"/>
      <path d="M647.5 207.4627 L655 192.4627 L647.5 207.4627 L640 192.4627 Z" clip-path="url(#clipPath2)" stroke="none"/>
      <path fill="none" stroke-miterlimit="10" d="M647.5 207.4627 L655 192.4627 L647.5 207.4627 L640 192.4627 Z" stroke-width="1" clip-path="url(#clipPath2)" stroke-linecap="square"/>
      <text x="600.6426" y="168.0043" clip-path="url(#clipPath2)" font-family="sans-serif" stroke="none" stroke-width="1" xml:space="preserve">Proxy</text>
      <path fill="none" stroke-dasharray="6,2" d="M571.4868 251.7 L181.2624 251.7" stroke-width="1" clip-path="url(#clipPath2)"/>
      <path stroke-dasharray="6,2" d="M177.2624 251.7 L189.2624 257.7 L177.2624 251.7 L189.2624 245.7 Z" stroke-width="1" clip-path="url(#clipPath2)" stroke="none"/>
      <path fill="none" stroke-miterlimit="10" d="M177.2624 251.7 L189.2624 257.7 L177.2624 251.7 L189.2624 245.7 Z" stroke-width="1" clip-path="url(#clipPath2)" stroke-linecap="square"/>
      <path fill="none" stroke-dasharray="6,2" d="M723.5132 251.7 L1113.7377 251.7" stroke-width="1" clip-path="url(#clipPath2)"/>
      <path stroke-dasharray="6,2" d="M1117.7377 251.7 L1105.7377 245.7 L1117.7377 251.7 L1105.7377 257.7 Z" stroke-width="1" clip-path="url(#clipPath2)" stroke="none"/>
      <path fill="none" stroke-miterlimit="10" d="M1117.7377 251.7 L1105.7377 245.7 L1117.7377 251.7 L1105.7377 257.7 Z" stroke-width="1" clip-path="url(#clipPath2)" stroke-linecap="square"/>
      <path fill="none" d="M647.5 569.7538 L647.5 447.7725" clip-path="url(#clipPath2)"/>
      <path d="M647.5 442.7725 L640 457.7725 L647.5 442.7725 L655 457.7725 Z" clip-path="url(#clipPath2)" stroke="none"/>
      <path fill="none" stroke-miterlimit="10" d="M647.5 442.7725 L640 457.7725 L647.5 442.7725 L655 457.7725 Z" stroke-width="1" clip-path="url(#clipPath2)" stroke-linecap="square"/>
      <text x="561.5312" y="509.7793" clip-path="url(#clipPath2)" font-family="sans-serif" stroke="none" stroke-width="1" xml:space="preserve">redirect (307)</text>
      <path fill="none" stroke-dasharray="6,2" d="M573.395 397.4173 L434.9796 395.395" stroke-width="1" clip-path="url(#clipPath2)"/>
      <path stroke-dasharray="6,2" d="M430.98 395.3366 L442.8911 401.5112 L430.98 395.3366 L443.0664 389.5125 Z" stroke-width="1" clip-path="url(#clipPath2)" stroke="none"/>
      <path fill="none" stroke-miterlimit="10" d="M430.98 395.3366 L442.8911 401.5112 L430.98 395.3366 L443.0664 389.5125 Z" stroke-width="1" clip-path="url(#clipPath2)" stroke-linecap="square"/>
      <path fill="none" stroke-dasharray="6,2" d="M723.4849 398.5 L860.0107 398.5" stroke-width="1" clip-path="url(#clipPath2)"/>
      <path stroke-dasharray="6,2" d="M864.0107 398.5 L852.0107 392.5 L864.0107 398.5 L852.0107 404.5 Z" stroke-width="1" clip-path="url(#clipPath2)" stroke="none"/>
      <path fill="none" stroke-miterlimit="10" d="M864.0107 398.5 L852.0107 392.5 L864.0107 398.5 L852.0107 404.5 Z" stroke-width="1" clip-path="url(#clipPath2)" stroke-linecap="square"/>
    </g>
  </g>
</svg>
